<svg width="183" height="157" viewBox="0 0 183 157" fill="none" xmlns="http://www.w3.org/2000/svg">
<path d="M82.7056 1.88609L115.657 49.02C117.406 51.522 117.439 54.7581 115.742 57.2913L100.879 79.4731L79.8814 46.1728C79.4058 45.4181 78.243 45.4292 77.7832 46.1927L32.9115 120.764C32.7678 121.003 32.4991 121.15 32.208 121.15H0.810116C0.181389 121.15 -0.206959 120.504 0.116518 119.995L75.1762 2.03661C76.8619 -0.612116 80.9026 -0.692893 82.7056 1.88609Z" fill="#D03B45"/>
<path d="M100.295 155.114L67.3431 107.98C65.594 105.478 65.5608 102.242 67.2582 99.7085L82.1215 77.5268L103.118 110.827C103.594 111.582 104.757 111.571 105.217 110.807L150.089 36.2358C150.232 35.9971 150.501 35.8495 150.792 35.8495H182.19C182.819 35.8495 183.207 36.4962 182.883 37.0046L107.824 154.963C106.138 157.612 102.098 157.693 100.295 155.114Z" fill="#D03B45"/>
</svg>
