<svg xmlns="http://www.w3.org/2000/svg" version="1.1" xmlns:xlink="http://www.w3.org/1999/xlink" width="39" height="41"><svg width="39" height="41" viewBox="0 0 39 41" fill="none" xmlns="http://www.w3.org/2000/svg">
<path d="M11.108 32.2898H8.98295C8.92235 31.9413 8.81061 31.6326 8.64773 31.3636C8.48485 31.0909 8.2822 30.8598 8.03977 30.6705C7.79735 30.4811 7.52083 30.339 7.21023 30.2443C6.90341 30.1458 6.57197 30.0966 6.21591 30.0966C5.58333 30.0966 5.02273 30.2557 4.53409 30.5739C4.04545 30.8883 3.66288 31.3504 3.38636 31.9602C3.10985 32.5663 2.97159 33.3068 2.97159 34.1818C2.97159 35.072 3.10985 35.822 3.38636 36.4318C3.66667 37.0379 4.04924 37.4962 4.53409 37.8068C5.02273 38.1136 5.58144 38.267 6.21023 38.267C6.55871 38.267 6.88447 38.2216 7.1875 38.1307C7.49432 38.036 7.76894 37.8977 8.01136 37.7159C8.25758 37.5341 8.46402 37.3106 8.63068 37.0455C8.80114 36.7803 8.91856 36.4773 8.98295 36.1364L11.108 36.1477C11.0284 36.7008 10.8561 37.2197 10.5909 37.7045C10.3295 38.1894 9.98674 38.6174 9.5625 38.9886C9.13826 39.3561 8.64205 39.6439 8.07386 39.8523C7.50568 40.0568 6.875 40.1591 6.18182 40.1591C5.15909 40.1591 4.24621 39.9223 3.44318 39.4489C2.64015 38.9754 2.00758 38.2917 1.54545 37.3977C1.08333 36.5038 0.852273 35.4318 0.852273 34.1818C0.852273 32.928 1.08523 31.8561 1.55114 30.9659C2.01705 30.072 2.65152 29.3883 3.45455 28.9148C4.25758 28.4413 5.16667 28.2045 6.18182 28.2045C6.82955 28.2045 7.43182 28.2955 7.98864 28.4773C8.54545 28.6591 9.04167 28.9261 9.47727 29.2784C9.91288 29.6269 10.2708 30.0549 10.5511 30.5625C10.8352 31.0663 11.0208 31.642 11.108 32.2898ZM13.5384 40V28.3636H17.902C18.7959 28.3636 19.5459 28.5189 20.152 28.8295C20.7618 29.1402 21.2221 29.5758 21.5327 30.1364C21.8471 30.6932 22.0043 31.3428 22.0043 32.0852C22.0043 32.8314 21.8452 33.4792 21.527 34.0284C21.2126 34.5739 20.7486 34.9962 20.1349 35.2955C19.5213 35.5909 18.7675 35.7386 17.8736 35.7386H14.7656V33.9886H17.5895C18.1122 33.9886 18.5402 33.9167 18.8736 33.7727C19.2069 33.625 19.4531 33.411 19.6122 33.1307C19.7751 32.8466 19.8565 32.4981 19.8565 32.0852C19.8565 31.6723 19.7751 31.3201 19.6122 31.0284C19.4493 30.733 19.2012 30.5095 18.8679 30.358C18.5346 30.2027 18.1046 30.125 17.5781 30.125H15.6463V40H13.5384ZM19.5497 34.7273L22.4304 40H20.0781L17.2486 34.7273H19.5497ZM24.4446 28.3636H27.0241L30.4787 36.7955H30.6151L34.0696 28.3636H36.6491V40H34.6264V32.0057H34.5185L31.3026 39.9659H29.7912L26.5753 31.9886H26.4673V40H24.4446V28.3636Z" fill="#D03B45"></path>
<path d="M18.4138 0.275409L22.9613 7.15794C23.2027 7.52328 23.2073 7.99582 22.973 8.36573L20.9218 11.6047L18.0241 6.7422C17.9584 6.632 17.798 6.63361 17.7345 6.74509L11.542 17.6341C11.5221 17.6689 11.4851 17.6905 11.4449 17.6905H7.1118C7.02503 17.6905 6.97144 17.596 7.01608 17.5218L17.3747 0.297387C17.6074 -0.0893818 18.165 -0.101177 18.4138 0.275409Z" fill="#D03B45"></path>
<path d="M20.8412 22.6504L16.2937 15.7679C16.0523 15.4026 16.0477 14.93 16.2819 14.5601L18.3332 11.3211L21.2308 16.1836C21.2965 16.2938 21.457 16.2922 21.5204 16.1807L27.713 5.29176C27.7328 5.2569 27.7699 5.23535 27.8101 5.23535H32.1431C32.2299 5.23535 32.2835 5.32979 32.2389 5.40402L21.8802 22.6284C21.6476 23.0152 21.09 23.027 20.8412 22.6504Z" fill="#D03B45"></path>
</svg><style>@media (prefers-color-scheme: light) { :root { filter: none; } }
@media (prefers-color-scheme: dark) { :root { filter: none; } }
</style></svg>